<?xml version="1.0" encoding="UTF-8"?>
<!DOCTYPE svg PUBLIC "-//W3C//DTD SVG 1.1//EN" "http://www.w3.org/Graphics/SVG/1.1/DTD/svg11.dtd">
<svg xmlns="http://www.w3.org/2000/svg" version="1.1" width="382px" height="292px" style="shape-rendering:geometricPrecision; text-rendering:geometricPrecision; image-rendering:optimizeQuality; fill-rule:evenodd; clip-rule:evenodd" xmlns:xlink="http://www.w3.org/1999/xlink">
<g><path style="opacity:1" fill="#e6edf2" d="M 155.5,15.5 C 173.654,13.4412 181.654,21.2746 179.5,39C 175.342,47.8189 169.675,55.4856 162.5,62C 157.833,65.6667 153.167,69.3333 148.5,73C 145.97,74.4217 143.303,74.755 140.5,74C 128.961,69.1214 119.128,61.9547 111,52.5C 103.718,42.4192 103.884,32.5858 111.5,23C 122.761,15.2236 133.094,16.3903 142.5,26.5C 146.268,22.1231 150.601,18.4565 155.5,15.5 Z"/></g>
<g><path style="opacity:1" fill="#e6edf2" d="M 212.5,54.5 C 278.484,56.3543 327.317,87.021 359,146.5C 371.186,175.08 371.519,203.746 360,232.5C 346.988,255.166 327.821,270 302.5,277C 282.175,282.283 262.009,281.449 242,274.5C 232.007,272.274 222.173,268.774 212.5,264C 202.964,258.736 193.631,253.236 184.5,247.5C 165.626,262.772 144.292,273.605 120.5,280C 86.5086,289.134 56.6753,281.634 31,257.5C 19.4875,243.345 13.6542,226.679 13.5,207.5C 14.8439,185.823 22.1772,166.157 35.5,148.5C 64.345,113.432 100.678,93.9322 144.5,90C 154.255,80.908 164.588,72.5747 175.5,65C 187.364,59.5412 199.698,56.0412 212.5,54.5 Z M 167.5,172.5 C 171.121,176.625 172.454,175.625 171.5,169.5C 169.058,169.881 168.391,169.214 169.5,167.5C 169.154,166.304 168.654,166.304 168,167.5C 159.875,151.81 155.042,135.31 153.5,118C 155.089,89.7403 169.422,71.407 196.5,63C 223.506,57.1342 249.839,60.1342 275.5,72C 312.582,88.0819 339.415,114.582 356,151.5C 362.684,167.621 364.684,184.288 362,201.5C 355.514,227.653 339.014,243.153 312.5,248C 291.362,250.708 271.029,247.708 251.5,239C 236.962,232.575 223.628,224.409 211.5,214.5C 212.513,211.797 214.013,209.464 216,207.5C 236.04,222.934 258.54,233.1 283.5,238C 303.8,241.802 322.133,237.135 338.5,224C 354.697,204.67 358.863,182.836 351,158.5C 329.253,107.17 290.753,76.6703 235.5,67C 218.541,64.3106 202.541,66.9773 187.5,75C 181.728,78.603 176.728,83.103 172.5,88.5C 169.013,94.4794 166.013,100.646 163.5,107C 163.526,115.274 163.526,123.607 163.5,132C 166.105,139.813 169.105,147.48 172.5,155C 172.167,155.333 171.833,155.667 171.5,156C 175.372,162.375 179.039,168.875 182.5,175.5C 177.041,186.054 169.875,195.387 161,203.5C 142.393,176.723 136.226,147.223 142.5,115C 144.245,109.758 146.745,104.925 150,100.5C 149.993,104.631 149.826,108.798 149.5,113C 149.48,120.008 150.48,126.841 152.5,133.5C 152.069,134.293 151.735,135.127 151.5,136C 151.892,137.011 152.559,137.511 153.5,137.5C 153.291,138.086 152.957,138.586 152.5,139C 154.211,141.456 155.544,144.123 156.5,147C 156.167,147.333 155.833,147.667 155.5,148C 158.925,156.55 162.925,164.717 167.5,172.5 Z M 246.5,78.5 C 256.159,78.7318 265.492,80.5651 274.5,84C 301.889,95.0525 322.723,113.552 337,139.5C 341.221,147.973 341.554,156.307 338,164.5C 336.846,165.743 335.512,166.743 334,167.5C 330.643,166.83 327.477,165.663 324.5,164C 311.931,150.321 299.264,136.821 286.5,123.5C 272.861,112.362 258.528,102.195 243.5,93C 236.866,86.7133 237.866,81.88 246.5,78.5 Z M 144.5,235.5 C 145.249,234.469 145.915,233.302 146.5,232C 145.5,231.333 144.5,231.333 143.5,232C 122.641,246.095 99.641,253.928 74.5,255.5C 40.4413,254.108 22.7746,236.441 21.5,202.5C 21.6968,189.409 24.8634,177.075 31,165.5C 56.3282,123.255 93.4949,99.922 142.5,95.5C 141.376,96.914 140.376,98.414 139.5,100C 96.341,104.681 62.5077,125.181 38,161.5C 26.3858,179.806 23.0525,199.473 28,220.5C 34.1585,235.187 44.9919,244.687 60.5,249C 74.2085,251.274 87.5419,250.608 100.5,247C 143.325,233.832 174.825,207.332 195,167.5C 203.826,144.135 198.826,124.135 180,107.5C 179.409,106.517 179.743,105.85 181,105.5C 197.567,116.754 205.233,132.42 204,152.5C 202.965,162.026 200.298,171.026 196,179.5C 195.667,179.167 195.333,178.833 195,178.5C 194.67,181.489 193.836,184.322 192.5,187C 192.85,188.257 193.517,188.591 194.5,188C 198.457,182.587 202.29,177.087 206,171.5C 209.367,168.405 211.701,169.072 213,173.5C 214.326,181.252 213.659,188.918 211,196.5C 200.943,221.897 183.777,241.064 159.5,254C 147.143,260.063 134.143,264.23 120.5,266.5C 116.575,266.16 113.075,264.826 110,262.5C 110.088,259.358 111.588,256.858 114.5,255C 124.697,247.81 134.697,241.31 144.5,235.5 Z M 198.5,98.5 C 260.072,102.265 301.572,132.932 323,190.5C 325,198.833 325,207.167 323,215.5C 319.354,224.977 312.52,230.644 302.5,232.5C 270.793,233.083 242.793,222.583 218.5,201C 227.134,180.049 227.968,158.215 221,135.5C 214.341,120.844 204.174,109.344 190.5,101C 193.31,100.218 195.977,99.3844 198.5,98.5 Z M 111.5,110.5 C 117.369,110.048 123.035,110.881 128.5,113C 133.511,117.44 133.178,121.773 127.5,126C 103.767,135.694 82.1,148.694 62.5,165C 56.4613,169.098 52.128,167.764 49.5,161C 57.6726,143.161 70.3393,129.494 87.5,120C 92.2249,118.208 96.7249,116.041 101,113.5C 101.333,113.833 101.667,114.167 102,114.5C 104.066,112.36 106.4,111.693 109,112.5C 109.995,111.934 110.828,111.267 111.5,110.5 Z M 171.5,132.5 C 178.86,135.012 185.36,139.012 191,144.5C 191.801,153.367 190.135,161.7 186,169.5C 182.295,163.425 178.962,156.758 176,149.5C 173.775,143.998 172.275,138.331 171.5,132.5 Z M 123.5,136.5 C 125.144,136.286 126.644,136.62 128,137.5C 127.413,164.557 134.58,189.224 149.5,211.5C 149,212.5 148.5,213.5 148,214.5C 126.807,230.752 102.807,240.086 76,242.5C 66.6607,242.834 58.6607,239.834 52,233.5C 49.1247,229.49 47.958,224.99 48.5,220C 49.2049,202.539 55.3716,187.372 67,174.5C 82.5774,156.715 101.411,144.049 123.5,136.5 Z M 208.5,218.5 C 217.601,225.227 226.934,231.727 236.5,238C 261.378,252.748 287.712,259.415 315.5,258C 306.948,262.93 297.781,266.097 288,267.5C 253.229,268.577 222.063,258.41 194.5,237C 199.395,231.556 204.062,225.389 208.5,218.5 Z"/></g>
</svg>
